<?xml version="1.0" encoding="UTF-8" standalone="no"?>
<!-- Created with Inkscape (http://www.inkscape.org/) -->

<svg
   xmlns:dc="http://purl.org/dc/elements/1.1/"
   xmlns:cc="http://creativecommons.org/ns#"
   xmlns:rdf="http://www.w3.org/1999/02/22-rdf-syntax-ns#"
   xmlns:svg="http://www.w3.org/2000/svg"
   xmlns="http://www.w3.org/2000/svg"
   xmlns:inkscape="http://www.inkscape.org/namespaces/inkscape"
   version="1.1"
   width="1000"
   height="750"
   id="svg2"
   xml:space="preserve"><metadata
     id="metadata8"><rdf:RDF><cc:Work
         rdf:about=""><dc:format>image/svg+xml</dc:format><dc:type
           rdf:resource="http://purl.org/dc/dcmitype/StillImage" /></cc:Work></rdf:RDF></metadata><defs
     id="defs6"><clipPath
       id="clipPath18"><path
         d="M 0,5999.97 0,0 l 7999.99,0 0,5999.97"
         inkscape:connector-curvature="0"
         id="path20" /></clipPath></defs><g
     transform="matrix(1.25,0,0,-1.25,0,750)"
     id="g10"><g
       transform="scale(0.1,0.1)"
       id="g12"><g
         id="g14"><g
           clip-path="url(#clipPath18)"
           id="g16"><path
             d="m 0,0 7999.99,0 0,5999.97 L 0,5999.97 0,0 z"
             inkscape:connector-curvature="0"
             id="path22"
             style="fill:#3e4445;fill-opacity:1;fill-rule:nonzero;stroke:none" /><path
             d="m 4438.07,3086.04 c -54.17,-53.66 -124.88,-80.51 -211.84,-80.51 l -27.14,0 c -87.64,0 -159.05,26.85 -213.75,80.51 -54.93,53.7 -82.3,143.42 -82.3,269.88 0,119.06 27.79,205.22 83.85,258.25 55.85,53.15 128.78,79.54 218.43,79.54 l 14.73,0 c 88.87,0 161.06,-26.39 216.41,-79.54 55.45,-53.03 83.11,-139.19 83.11,-258.25 0,-126.46 -27.25,-216.18 -81.5,-269.88 z m 176.06,641.99 c -102.81,91.96 -237.85,137.93 -405.27,137.93 l -11.79,-0.1 c -159.99,-3.57 -289.71,-49.53 -389.47,-137.83 -103.82,-91.83 -155.64,-220.98 -155.64,-387.09 0,-157.01 51.46,-280.96 154.75,-371.38 103.09,-90.66 234.8,-135.98 395.07,-135.98 l 21.87,0 c 158.64,0 289.06,45.32 391.33,135.98 102.2,90.42 153.23,214.37 153.23,371.38 0,166.11 -51.3,295.26 -154.08,387.09"
             inkscape:connector-curvature="0"
             id="path24"
             style="fill:#cccfd5;fill-opacity:1;fill-rule:nonzero;stroke:none" /><path
             d="m 2288.88,2833.58 238.359,0 0,1010.26 -238.359,0 0,-1010.26 z"
             inkscape:connector-curvature="0"
             id="path26"
             style="fill:#cccfd5;fill-opacity:1;fill-rule:nonzero;stroke:none" /><path
             d="m 1125.7,2833.58 0,1010.26 243.57,0 514.1,-679.26 0,679.26 232.31,0 0,-1010.26 -251.36,0 -506.22,664.31 0,-664.31 -232.4,0"
             inkscape:connector-curvature="0"
             id="path28"
             style="fill:#cccfd5;fill-opacity:1;fill-rule:nonzero;stroke:none" /><path
             d="m 2692.66,2833.58 238.379,0 0,1010.26 -238.379,0 0,-1010.26 z"
             inkscape:connector-curvature="0"
             id="path30"
             style="fill:#cccfd5;fill-opacity:1;fill-rule:nonzero;stroke:none" /><path
             d="m 2926.96,3326.12 459.72,505.09 317.21,0 -479.08,-505.09 485.55,-492.54 -291.38,0 -492.02,492.54"
             inkscape:connector-curvature="0"
             id="path32"
             style="fill:#cccfd5;fill-opacity:1;fill-rule:nonzero;stroke:none" /><path
             d="m 5142.88,3650.66 0,183.42 -244.62,0 0,-1000.5 987.99,0 364.51,764.35 270.34,-528.88 -78.37,613.38 -76.84,174.46 -239.78,0 -402.85,-853.72 -580.38,0 0,647.49"
             inkscape:connector-curvature="0"
             id="path34"
             style="fill:#cccfd5;fill-opacity:1;fill-rule:nonzero;stroke:none" /><path
             d="m 6550.5,3497.28 323.79,-665.13 -354.87,0 297.38,-698.14 -566.04,864.46 369.31,0 -69.57,498.81"
             inkscape:connector-curvature="0"
             id="path36"
             style="fill:#f5ab14;fill-opacity:1;fill-rule:nonzero;stroke:none" /></g></g></g></g></svg>