<?xml version="1.0" encoding="UTF-8" standalone="no"?>
<svg xmlns="http://www.w3.org/2000/svg" viewBox="0, 0, 1000, 750">
<title>Nikola Logo</title>
<defs>
<clipPath id="a">
<path d="M0 5999.97v-5999.97h7999.99v5999.97"/>
</clipPath>
</defs>
<g clip-path="url(#a)">
<path d="M0 750h999.999v-749.996h-999.999v749.996z" fill="#3e4445"/>
<path d="M554.759 364.245c-6.771 6.707-15.61 10.064-26.48 10.064h-3.393c-10.955 0-19.881-3.356-26.719-10.064-6.866-6.713-10.287-17.927-10.287-33.735 0-14.883 3.474-25.652 10.481-32.281 6.981-6.644 16.098-9.943 27.304-9.943h1.841c11.109 0 20.133 3.299 27.051 9.943 6.931 6.629 10.389 17.399 10.389 32.281 0 15.807-3.406 27.023-10.188 33.735zm22.008-80.249c-12.851-11.495-29.731-17.241-50.659-17.241l-1.474.013c-19.999.446-36.214 6.191-48.684 17.229-12.977 11.479-19.455 27.622-19.455 48.386 0 19.626 6.433 35.12 19.344 46.422 12.886 11.332 29.35 16.997 49.384 16.997h2.734c19.83 0 36.133-5.665 48.916-16.997 12.775-11.303 19.154-26.796 19.154-46.422 0-20.764-6.412-36.907-19.26-48.386" fill="#cccfd5"/>
<path d="M286.11 395.803h29.795v-126.282h-29.795v126.282z" fill="#cccfd5"/>
<path d="M140.713 395.803v-126.282h30.446l64.263 84.907v-84.907h29.039v126.282h-31.42l-63.278-83.039v83.039h-29.05" fill="#cccfd5"/>
<path d="M336.582 395.803h29.797v-126.282h-29.797v126.282z" fill="#cccfd5"/>
<path d="M365.87 334.235l57.465-63.136h39.651l-59.885 63.136 60.694 61.568h-36.422l-61.502-61.568" fill="#cccfd5"/>
<path d="M642.86 293.668v-22.927h-30.578v125.063h123.499l45.564-95.544 33.792 66.11-9.796-76.672-9.605-21.808h-29.973l-50.356 106.715h-72.547v-80.936" fill="#cccfd5"/>
<path d="M818.813 312.84l40.474 83.141h-44.359l37.172 87.267-70.755-108.058h46.164l-8.696-62.351" fill="#f5ab14"/>
</g>
</svg>
